<?xml version="1.0" encoding="UTF-8" standalone="no"?>
<!-- Created with Inkscape (http://www.inkscape.org/) -->
<svg
   xmlns:dc="http://purl.org/dc/elements/1.1/"
   xmlns:cc="http://creativecommons.org/ns#"
   xmlns:rdf="http://www.w3.org/1999/02/22-rdf-syntax-ns#"
   xmlns:svg="http://www.w3.org/2000/svg"
   xmlns="http://www.w3.org/2000/svg"
   xmlns:xlink="http://www.w3.org/1999/xlink"
   xmlns:sodipodi="http://sodipodi.sourceforge.net/DTD/sodipodi-0.dtd"
   xmlns:inkscape="http://www.inkscape.org/namespaces/inkscape"
   width="144"
   height="144"
   id="svg2"
   sodipodi:version="0.32"
   inkscape:version="0.46"
   version="1.0"
   sodipodi:docname="joystick.svg"
   inkscape:output_extension="org.inkscape.output.svg.inkscape"
   inkscape:export-filename="/Users/mahe/joystick.png"
   inkscape:export-xdpi="90"
   inkscape:export-ydpi="90">
  <defs
     id="defs4">
    <linearGradient
       id="linearGradient3319">
      <stop
         id="stop3321"
         offset="0"
         style="stop-color:#ffffff;stop-opacity:1;" />
      <stop
         style="stop-color:#ff8000;stop-opacity:1;"
         offset="1"
         id="stop3323" />
    </linearGradient>
    <linearGradient
       id="linearGradient3311">
      <stop
         style="stop-color:#ffffff;stop-opacity:1;"
         offset="0"
         id="stop3313" />
      <stop
         id="stop3315"
         offset="1"
         style="stop-color:#9f9f9f;stop-opacity:1;" />
    </linearGradient>
    <linearGradient
       id="linearGradient3262">
      <stop
         style="stop-color:#000000;stop-opacity:1;"
         offset="0"
         id="stop3264" />
      <stop
         style="stop-color:#000000;stop-opacity:0;"
         offset="1"
         id="stop3266" />
    </linearGradient>
    <linearGradient
       id="linearGradient3213">
      <stop
         style="stop-color:#d9d9d9;stop-opacity:1;"
         offset="0"
         id="stop3215" />
      <stop
         style="stop-color:#d9d9d9;stop-opacity:1;"
         offset="1"
         id="stop3217" />
    </linearGradient>
    <linearGradient
       id="linearGradient3155">
      <stop
         id="stop3165"
         offset="0"
         style="stop-color:#c7c7c7;stop-opacity:1;" />
      <stop
         style="stop-color:#ffffff;stop-opacity:1;"
         offset="1"
         id="stop3159" />
    </linearGradient>
    <inkscape:perspective
       sodipodi:type="inkscape:persp3d"
       inkscape:vp_x="0 : 526.18109 : 1"
       inkscape:vp_y="6.123234e-14 : 1000 : 0"
       inkscape:vp_z="744.09448 : 526.18109 : 1"
       inkscape:persp3d-origin="372.04724 : 350.78739 : 1"
       id="perspective10" />
    <radialGradient
       inkscape:collect="always"
       xlink:href="#linearGradient3262"
       id="radialGradient3272"
       cx="23.874996"
       cy="24.225313"
       fx="23.874996"
       fy="24.225313"
       r="20.33461"
       gradientUnits="userSpaceOnUse"
       spreadMethod="pad" />
    <radialGradient
       inkscape:collect="always"
       xlink:href="#linearGradient3311"
       id="radialGradient3768"
       gradientUnits="userSpaceOnUse"
       gradientTransform="matrix(1,0,0,0.999232,94.959956,-46.941343)"
       cx="23.875"
       cy="24.234375"
       fx="23.875"
       fy="24.234375"
       r="20.34375" />
    <radialGradient
       inkscape:collect="always"
       xlink:href="#linearGradient3319"
       id="radialGradient3770"
       gradientUnits="userSpaceOnUse"
       gradientTransform="matrix(1,0,0,0.999232,94.959956,-46.941343)"
       cx="23.875"
       cy="24.234375"
       fx="23.875"
       fy="24.234375"
       r="20.34375" />
    <radialGradient
       inkscape:collect="always"
       xlink:href="#linearGradient3311"
       id="radialGradient3772"
       gradientUnits="userSpaceOnUse"
       gradientTransform="matrix(1,0,0,0.999232,-1.0400438,1.058657)"
       cx="23.875"
       cy="24.234375"
       fx="23.875"
       fy="24.234375"
       r="20.34375" />
    <radialGradient
       inkscape:collect="always"
       xlink:href="#linearGradient3319"
       id="radialGradient3774"
       gradientUnits="userSpaceOnUse"
       gradientTransform="matrix(1,0,0,0.999232,-1.0400438,1.058657)"
       cx="23.875"
       cy="24.234375"
       fx="23.875"
       fy="24.234375"
       r="20.34375" />
    <radialGradient
       inkscape:collect="always"
       xlink:href="#linearGradient3311"
       id="radialGradient3776"
       gradientUnits="userSpaceOnUse"
       gradientTransform="matrix(1,0,0,0.999232,46.959956,-46.941343)"
       cx="23.875"
       cy="24.234375"
       fx="23.875"
       fy="24.234375"
       r="20.34375" />
    <radialGradient
       inkscape:collect="always"
       xlink:href="#linearGradient3311"
       id="radialGradient3778"
       gradientUnits="userSpaceOnUse"
       gradientTransform="matrix(1,0,0,0.999232,94.959956,-94.941343)"
       cx="23.875"
       cy="24.234375"
       fx="23.875"
       fy="24.234375"
       r="20.34375" />
    <radialGradient
       inkscape:collect="always"
       xlink:href="#linearGradient3319"
       id="radialGradient3780"
       gradientUnits="userSpaceOnUse"
       gradientTransform="matrix(1,0,0,0.999232,94.959956,-94.941343)"
       cx="23.875"
       cy="24.234375"
       fx="23.875"
       fy="24.234375"
       r="20.34375" />
    <radialGradient
       inkscape:collect="always"
       xlink:href="#linearGradient3311"
       id="radialGradient3782"
       gradientUnits="userSpaceOnUse"
       gradientTransform="matrix(1,0,0,0.999232,94.959956,1.058657)"
       cx="23.875"
       cy="24.234375"
       fx="23.875"
       fy="24.234375"
       r="20.34375" />
    <radialGradient
       inkscape:collect="always"
       xlink:href="#linearGradient3319"
       id="radialGradient3784"
       gradientUnits="userSpaceOnUse"
       gradientTransform="matrix(1,0,0,0.999232,94.959956,1.058657)"
       cx="23.875"
       cy="24.234375"
       fx="23.875"
       fy="24.234375"
       r="20.34375" />
    <radialGradient
       inkscape:collect="always"
       xlink:href="#linearGradient3311"
       id="radialGradient3786"
       gradientUnits="userSpaceOnUse"
       gradientTransform="matrix(1,0,0,0.999232,-1.0400438,-94.941343)"
       cx="23.875"
       cy="24.234375"
       fx="23.875"
       fy="24.234375"
       r="20.34375" />
    <radialGradient
       inkscape:collect="always"
       xlink:href="#linearGradient3319"
       id="radialGradient3788"
       gradientUnits="userSpaceOnUse"
       gradientTransform="matrix(1,0,0,0.999232,-1.0400438,-94.941343)"
       cx="23.875"
       cy="24.234375"
       fx="23.875"
       fy="24.234375"
       r="20.34375" />
    <radialGradient
       inkscape:collect="always"
       xlink:href="#linearGradient3311"
       id="radialGradient3790"
       gradientUnits="userSpaceOnUse"
       gradientTransform="matrix(1,0,0,0.999232,-1.0400438,-46.941343)"
       cx="23.875"
       cy="24.234375"
       fx="23.875"
       fy="24.234375"
       r="20.34375" />
    <radialGradient
       inkscape:collect="always"
       xlink:href="#linearGradient3319"
       id="radialGradient3792"
       gradientUnits="userSpaceOnUse"
       gradientTransform="matrix(1,0,0,0.999232,-1.0400438,-46.941343)"
       cx="23.875"
       cy="24.234375"
       fx="23.875"
       fy="24.234375"
       r="20.34375" />
    <radialGradient
       inkscape:collect="always"
       xlink:href="#linearGradient3311"
       id="radialGradient3794"
       gradientUnits="userSpaceOnUse"
       gradientTransform="matrix(1,0,0,0.999232,46.959956,1.058657)"
       cx="23.875"
       cy="24.234375"
       fx="23.875"
       fy="24.234375"
       r="20.34375" />
    <radialGradient
       inkscape:collect="always"
       xlink:href="#linearGradient3319"
       id="radialGradient3796"
       gradientUnits="userSpaceOnUse"
       gradientTransform="matrix(1,0,0,0.999232,46.959956,1.058657)"
       cx="23.875"
       cy="24.234375"
       fx="23.875"
       fy="24.234375"
       r="20.34375" />
    <radialGradient
       inkscape:collect="always"
       xlink:href="#linearGradient3311"
       id="radialGradient3798"
       gradientUnits="userSpaceOnUse"
       gradientTransform="matrix(1,0,0,0.999232,46.959956,-94.941343)"
       cx="23.875"
       cy="24.234375"
       fx="23.875"
       fy="24.234375"
       r="20.34375" />
    <radialGradient
       inkscape:collect="always"
       xlink:href="#linearGradient3319"
       id="radialGradient3800"
       gradientUnits="userSpaceOnUse"
       gradientTransform="matrix(1,0,0,0.999232,46.959956,-94.941343)"
       cx="23.875"
       cy="24.234375"
       fx="23.875"
       fy="24.234375"
       r="20.34375" />
  </defs>
  <sodipodi:namedview
     id="base"
     pagecolor="#ffffff"
     bordercolor="#666666"
     borderopacity="1"
     gridtolerance="10000"
     guidetolerance="10"
     objecttolerance="10"
     inkscape:pageopacity="0.0"
     inkscape:pageshadow="2"
     inkscape:zoom="3.2796268"
     inkscape:cx="27.120266"
     inkscape:cy="99.44286"
     inkscape:document-units="px"
     inkscape:current-layer="layer1"
     showgrid="false"
     width="96px"
     inkscape:window-width="1288"
     inkscape:window-height="875"
     inkscape:window-x="316"
     inkscape:window-y="153" />
  <metadata
     id="metadata7">
    <rdf:RDF>
      <cc:Work
         rdf:about="">
        <dc:format>image/svg+xml</dc:format>
        <dc:type
           rdf:resource="http://purl.org/dc/dcmitype/StillImage" />
      </cc:Work>
    </rdf:RDF>
  </metadata>
  <g
     inkscape:label="Layer 1"
     inkscape:groupmode="layer"
     id="layer1">
    <g
       id="g3739"
       transform="translate(1.0400433,94.959956)">
      <g
         style="fill:none;stroke:none"
         id="g3728">
        <path
           sodipodi:type="arc"
           style="fill:none;fill-opacity:1;fill-rule:evenodd;stroke:none;stroke-width:0.92585087;stroke-linecap:butt;stroke-linejoin:miter;stroke-miterlimit:4;stroke-dasharray:none;stroke-opacity:1"
           id="path3346"
           sodipodi:cx="24.162647"
           sodipodi:cy="23.837353"
           sodipodi:rx="19.272589"
           sodipodi:ry="22.436745"
           d="M 43.435236,23.837353 A 19.272589,22.436745 0 1 1 4.8900585,23.837353 A 19.272589,22.436745 0 1 1 43.435236,23.837353 z"
           transform="matrix(1.1653835,0,0,1.0010345,-5.1987935,1.178032)" />
        <path
           sodipodi:type="arc"
           style="fill:none;fill-opacity:1;fill-rule:evenodd;stroke:none;stroke-width:0.92585087;stroke-linecap:butt;stroke-linejoin:miter;stroke-miterlimit:4;stroke-dasharray:none;stroke-opacity:1"
           id="path3374"
           sodipodi:cx="24.162647"
           sodipodi:cy="23.837353"
           sodipodi:rx="19.272589"
           sodipodi:ry="22.436745"
           d="M 43.435236,23.837353 A 19.272589,22.436745 0 1 1 4.8900585,23.837353 A 19.272589,22.436745 0 1 1 43.435236,23.837353 z"
           transform="matrix(1.1653835,0,0,1.0010345,42.801206,-46.821968)" />
        <path
           sodipodi:type="arc"
           style="fill:none;fill-opacity:1;fill-rule:evenodd;stroke:none;stroke-width:0.92585087;stroke-linecap:butt;stroke-linejoin:miter;stroke-miterlimit:4;stroke-dasharray:none;stroke-opacity:1"
           id="path3416"
           sodipodi:cx="24.162647"
           sodipodi:cy="23.837353"
           sodipodi:rx="19.272589"
           sodipodi:ry="22.436745"
           d="M 43.435236,23.837353 A 19.272589,22.436745 0 1 1 4.8900585,23.837353 A 19.272589,22.436745 0 1 1 43.435236,23.837353 z"
           transform="matrix(1.1653835,0,0,1.0010345,90.801206,-94.821968)" />
        <path
           sodipodi:type="arc"
           style="fill:none;fill-opacity:1;fill-rule:evenodd;stroke:none;stroke-width:0.92585087;stroke-linecap:butt;stroke-linejoin:miter;stroke-miterlimit:4;stroke-dasharray:none;stroke-opacity:1"
           id="path3548"
           sodipodi:cx="24.162647"
           sodipodi:cy="23.837353"
           sodipodi:rx="19.272589"
           sodipodi:ry="22.436745"
           d="M 43.435236,23.837353 A 19.272589,22.436745 0 1 1 4.8900585,23.837353 A 19.272589,22.436745 0 1 1 43.435236,23.837353 z"
           transform="matrix(1.1653835,0,0,1.0010345,90.801206,1.178032)" />
        <path
           sodipodi:type="arc"
           style="fill:none;fill-opacity:1;fill-rule:evenodd;stroke:none;stroke-width:0.92585087;stroke-linecap:butt;stroke-linejoin:miter;stroke-miterlimit:4;stroke-dasharray:none;stroke-opacity:1"
           id="path3556"
           sodipodi:cx="24.162647"
           sodipodi:cy="23.837353"
           sodipodi:rx="19.272589"
           sodipodi:ry="22.436745"
           d="M 43.435236,23.837353 A 19.272589,22.436745 0 1 1 4.8900585,23.837353 A 19.272589,22.436745 0 1 1 43.435236,23.837353 z"
           transform="matrix(1.1653835,0,0,1.0010345,-5.1987935,-94.821968)" />
        <path
           sodipodi:type="arc"
           style="fill:none;fill-opacity:1;fill-rule:evenodd;stroke:none;stroke-width:0.92585087;stroke-linecap:butt;stroke-linejoin:miter;stroke-miterlimit:4;stroke-dasharray:none;stroke-opacity:1"
           id="path3564"
           sodipodi:cx="24.162647"
           sodipodi:cy="23.837353"
           sodipodi:rx="19.272589"
           sodipodi:ry="22.436745"
           d="M 43.435236,23.837353 A 19.272589,22.436745 0 1 1 4.8900585,23.837353 A 19.272589,22.436745 0 1 1 43.435236,23.837353 z"
           transform="matrix(1.1653835,0,0,1.0010345,-5.1987935,-46.821968)" />
        <path
           sodipodi:type="arc"
           style="fill:none;fill-opacity:1;fill-rule:evenodd;stroke:none;stroke-width:0.92585087;stroke-linecap:butt;stroke-linejoin:miter;stroke-miterlimit:4;stroke-dasharray:none;stroke-opacity:1"
           id="path3590"
           sodipodi:cx="24.162647"
           sodipodi:cy="23.837353"
           sodipodi:rx="19.272589"
           sodipodi:ry="22.436745"
           d="M 43.435236,23.837353 A 19.272589,22.436745 0 1 1 4.8900585,23.837353 A 19.272589,22.436745 0 1 1 43.435236,23.837353 z"
           transform="matrix(1.1653835,0,0,1.0010345,42.801206,1.178032)" />
        <path
           sodipodi:type="arc"
           style="fill:none;fill-opacity:1;fill-rule:evenodd;stroke:none;stroke-width:0.92585087;stroke-linecap:butt;stroke-linejoin:miter;stroke-miterlimit:4;stroke-dasharray:none;stroke-opacity:1"
           id="path3604"
           sodipodi:cx="24.162647"
           sodipodi:cy="23.837353"
           sodipodi:rx="19.272589"
           sodipodi:ry="22.436745"
           d="M 43.435236,23.837353 A 19.272589,22.436745 0 1 1 4.8900585,23.837353 A 19.272589,22.436745 0 1 1 43.435236,23.837353 z"
           transform="matrix(1.1653835,0,0,1.0010345,90.801206,-46.821968)" />
        <path
           sodipodi:type="arc"
           style="fill:none;fill-opacity:1;fill-rule:evenodd;stroke:none;stroke-width:0.92585087;stroke-linecap:butt;stroke-linejoin:miter;stroke-miterlimit:4;stroke-dasharray:none;stroke-opacity:1"
           id="path3618"
           sodipodi:cx="24.162647"
           sodipodi:cy="23.837353"
           sodipodi:rx="19.272589"
           sodipodi:ry="22.436745"
           d="M 43.435236,23.837353 A 19.272589,22.436745 0 1 1 4.8900585,23.837353 A 19.272589,22.436745 0 1 1 43.435236,23.837353 z"
           transform="matrix(1.1653835,0,0,1.0010345,42.801206,-94.821968)" />
      </g>
      <path
         id="path3606"
         d="M 119.08496,-42.553706 L 115.83496,-37.209956 L 112.61621,-31.866206 L 118.95996,-31.803706 L 125.30371,-31.741206 L 122.17871,-37.147456 L 119.08496,-42.553706 z M 109.67871,-29.303706 L 104.33496,-26.084956 L 98.991206,-22.834956 L 104.39746,-19.741206 L 109.80371,-16.616206 L 109.74121,-22.959956 L 109.67871,-29.303706 z M 127.99121,-29.303706 L 127.92871,-22.959956 L 127.86621,-16.616206 L 133.27246,-19.741206 L 138.67871,-22.834956 L 133.33496,-26.084956 L 127.99121,-29.303706 z M 118.95996,-28.459956 C 115.93026,-28.459956 113.45996,-25.989647 113.45996,-22.959956 C 113.45996,-19.930264 115.93026,-17.459955 118.95996,-17.459956 C 121.98965,-17.459956 124.45996,-19.930263 124.45996,-22.959956 C 124.45996,-25.989648 121.98965,-28.459955 118.95996,-28.459956 z M 125.30371,-13.709956 L 118.95996,-13.647456 L 112.61621,-13.584956 L 115.83496,-8.241206 L 119.08496,-2.897456 L 122.17871,-8.303706 L 125.30371,-13.709956 z"
         style="fill:url(#radialGradient3768);fill-opacity:1;fill-rule:nonzero;stroke:#000000;stroke-width:1;stroke-miterlimit:4;stroke-opacity:1" />
      <path
         id="path3608"
         d="M 127.99121,-29.303706 L 127.92871,-22.959956 L 127.86621,-16.616206 L 133.27246,-19.741206 L 138.67871,-22.834956 L 133.33496,-26.084956 L 127.99121,-29.303706 z M 118.95996,-28.459956 C 115.93026,-28.459956 113.45996,-25.989647 113.45996,-22.959956 C 113.45996,-19.930264 115.93026,-17.459955 118.95996,-17.459956 C 121.98965,-17.459956 124.45996,-19.930263 124.45996,-22.959956 C 124.45996,-25.989648 121.98965,-28.459955 118.95996,-28.459956 z"
         style="fill:url(#radialGradient3770);fill-opacity:1;fill-rule:nonzero;stroke:#000000;stroke-width:1;stroke-miterlimit:4;stroke-opacity:1"
         sodipodi:nodetypes="ccccccccsssc" />
      <path
         id="path3348"
         d="M 23.084956,5.4462938 L 19.834956,10.790044 L 16.616206,16.133794 L 22.959956,16.196294 L 29.303706,16.258794 L 26.178706,10.852544 L 23.084956,5.4462938 z M 13.678706,18.696294 L 8.3349562,21.915044 L 2.9912062,25.165044 L 8.3974562,28.258794 L 13.803706,31.383794 L 13.741206,25.040044 L 13.678706,18.696294 z M 31.991206,18.696294 L 31.928706,25.040044 L 31.866206,31.383794 L 37.272456,28.258794 L 42.678706,25.165044 L 37.334956,21.915044 L 31.991206,18.696294 z M 22.959956,19.540044 C 19.930264,19.540044 17.459957,22.010353 17.459956,25.040044 C 17.459956,28.069736 19.930264,30.540045 22.959956,30.540044 C 25.989648,30.540044 28.459957,28.069737 28.459956,25.040044 C 28.459956,22.010352 25.989649,19.540045 22.959956,19.540044 z M 29.303706,34.290044 L 22.959956,34.352544 L 16.616206,34.415044 L 19.834956,39.758794 L 23.084956,45.102544 L 26.178706,39.696294 L 29.303706,34.290044 z"
         style="fill:url(#radialGradient3772);fill-opacity:1;fill-rule:nonzero;stroke:#000000;stroke-width:1;stroke-miterlimit:4;stroke-opacity:1" />
      <path
         sodipodi:nodetypes="ccccccccssscccccccc"
         id="path3350"
         d="M 13.678706,18.696294 L 8.3349562,21.915044 L 2.9912062,25.165044 L 8.3974562,28.258794 L 13.803706,31.383794 L 13.741206,25.040044 L 13.678706,18.696294 z M 22.959956,19.540044 C 19.930264,19.540044 17.459957,22.010353 17.459956,25.040044 C 17.459956,28.069736 19.930264,30.540045 22.959956,30.540044 C 25.989648,30.540044 28.459957,28.069737 28.459956,25.040044 C 28.459956,22.010352 25.989649,19.540045 22.959956,19.540044 z M 29.303706,34.290044 L 22.959956,34.352544 L 16.616206,34.415044 L 19.834956,39.758794 L 23.084956,45.102544 L 26.178706,39.696294 L 29.303706,34.290044 z"
         style="fill:url(#radialGradient3774);fill-opacity:1;fill-rule:nonzero;stroke:#000000;stroke-width:1;stroke-miterlimit:4;stroke-opacity:1" />
      <path
         id="path3376"
         d="M 71.084956,-42.553706 L 67.834956,-37.209956 L 64.616206,-31.866206 L 70.959956,-31.803706 L 77.303706,-31.741206 L 74.178706,-37.147456 L 71.084956,-42.553706 z M 61.678706,-29.303706 L 56.334956,-26.084956 L 50.991206,-22.834956 L 56.397456,-19.741206 L 61.803706,-16.616206 L 61.741206,-22.959956 L 61.678706,-29.303706 z M 79.991206,-29.303706 L 79.928706,-22.959956 L 79.866206,-16.616206 L 85.272456,-19.741206 L 90.678706,-22.834956 L 85.334956,-26.084956 L 79.991206,-29.303706 z M 70.959956,-28.459956 C 67.930264,-28.459956 65.459957,-25.989647 65.459956,-22.959956 C 65.459956,-19.930264 67.930264,-17.459955 70.959956,-17.459956 C 73.989648,-17.459956 76.459957,-19.930263 76.459956,-22.959956 C 76.459956,-25.989648 73.989649,-28.459955 70.959956,-28.459956 z M 77.303706,-13.709956 L 70.959956,-13.647456 L 64.616206,-13.584956 L 67.834956,-8.241206 L 71.084956,-2.897456 L 74.178706,-8.303706 L 77.303706,-13.709956 z"
         style="fill:url(#radialGradient3776);fill-opacity:1;fill-rule:nonzero;stroke:#000000;stroke-width:1;stroke-miterlimit:4;stroke-opacity:1" />
      <path
         id="path3418"
         d="M 119.08496,-90.553706 L 115.83496,-85.209956 L 112.61621,-79.866206 L 118.95996,-79.803706 L 125.30371,-79.741206 L 122.17871,-85.147456 L 119.08496,-90.553706 z M 109.67871,-77.303706 L 104.33496,-74.084956 L 98.991206,-70.834956 L 104.39746,-67.741206 L 109.80371,-64.616206 L 109.74121,-70.959956 L 109.67871,-77.303706 z M 127.99121,-77.303706 L 127.92871,-70.959956 L 127.86621,-64.616206 L 133.27246,-67.741206 L 138.67871,-70.834956 L 133.33496,-74.084956 L 127.99121,-77.303706 z M 118.95996,-76.459956 C 115.93026,-76.459956 113.45996,-73.989647 113.45996,-70.959956 C 113.45996,-67.930264 115.93026,-65.459955 118.95996,-65.459956 C 121.98965,-65.459956 124.45996,-67.930263 124.45996,-70.959956 C 124.45996,-73.989648 121.98965,-76.459955 118.95996,-76.459956 z M 125.30371,-61.709956 L 118.95996,-61.647456 L 112.61621,-61.584956 L 115.83496,-56.241206 L 119.08496,-50.897456 L 122.17871,-56.303706 L 125.30371,-61.709956 z"
         style="fill:url(#radialGradient3778);fill-opacity:1;fill-rule:nonzero;stroke:#000000;stroke-width:1;stroke-miterlimit:4;stroke-opacity:1" />
      <path
         sodipodi:nodetypes="cccccccccccccccsssc"
         id="path3420"
         d="M 119.08496,-90.553706 L 115.83496,-85.209956 L 112.61621,-79.866206 L 118.95996,-79.803706 L 125.30371,-79.741206 L 122.17871,-85.147456 L 119.08496,-90.553706 z M 127.99121,-77.303706 L 127.92871,-70.959956 L 127.86621,-64.616206 L 133.27246,-67.741206 L 138.67871,-70.834956 L 133.33496,-74.084956 L 127.99121,-77.303706 z M 118.95996,-76.459956 C 115.93026,-76.459956 113.45996,-73.989647 113.45996,-70.959956 C 113.45996,-67.930264 115.93026,-65.459955 118.95996,-65.459956 C 121.98965,-65.459956 124.45996,-67.930263 124.45996,-70.959956 C 124.45996,-73.989648 121.98965,-76.459955 118.95996,-76.459956 z"
         style="fill:url(#radialGradient3780);fill-opacity:1;fill-rule:nonzero;stroke:#000000;stroke-width:1;stroke-miterlimit:4;stroke-opacity:1" />
      <path
         id="path3550"
         d="M 119.08496,5.4462938 L 115.83496,10.790044 L 112.61621,16.133794 L 118.95996,16.196294 L 125.30371,16.258794 L 122.17871,10.852544 L 119.08496,5.4462938 z M 109.67871,18.696294 L 104.33496,21.915044 L 98.991206,25.165044 L 104.39746,28.258794 L 109.80371,31.383794 L 109.74121,25.040044 L 109.67871,18.696294 z M 127.99121,18.696294 L 127.92871,25.040044 L 127.86621,31.383794 L 133.27246,28.258794 L 138.67871,25.165044 L 133.33496,21.915044 L 127.99121,18.696294 z M 118.95996,19.540044 C 115.93026,19.540044 113.45996,22.010353 113.45996,25.040044 C 113.45996,28.069736 115.93026,30.540045 118.95996,30.540044 C 121.98965,30.540044 124.45996,28.069737 124.45996,25.040044 C 124.45996,22.010352 121.98965,19.540045 118.95996,19.540044 z M 125.30371,34.290044 L 118.95996,34.352544 L 112.61621,34.415044 L 115.83496,39.758794 L 119.08496,45.102544 L 122.17871,39.696294 L 125.30371,34.290044 z"
         style="fill:url(#radialGradient3782);fill-opacity:1;fill-rule:nonzero;stroke:#000000;stroke-width:1;stroke-miterlimit:4;stroke-opacity:1" />
      <path
         sodipodi:nodetypes="ccccccccssscccccccc"
         id="path3552"
         d="M 127.99121,18.696294 L 127.92871,25.040044 L 127.86621,31.383794 L 133.27246,28.258794 L 138.67871,25.165044 L 133.33496,21.915044 L 127.99121,18.696294 z M 118.95996,19.540044 C 115.93026,19.540044 113.45996,22.010353 113.45996,25.040044 C 113.45996,28.069736 115.93026,30.540045 118.95996,30.540044 C 121.98965,30.540044 124.45996,28.069737 124.45996,25.040044 C 124.45996,22.010352 121.98965,19.540045 118.95996,19.540044 z M 125.30371,34.290044 L 118.95996,34.352544 L 112.61621,34.415044 L 115.83496,39.758794 L 119.08496,45.102544 L 122.17871,39.696294 L 125.30371,34.290044 z"
         style="fill:url(#radialGradient3784);fill-opacity:1;fill-rule:nonzero;stroke:#000000;stroke-width:1;stroke-miterlimit:4;stroke-opacity:1" />
      <path
         id="path3558"
         d="M 23.084956,-90.553706 L 19.834956,-85.209956 L 16.616206,-79.866206 L 22.959956,-79.803706 L 29.303706,-79.741206 L 26.178706,-85.147456 L 23.084956,-90.553706 z M 13.678706,-77.303706 L 8.3349562,-74.084956 L 2.9912062,-70.834956 L 8.3974562,-67.741206 L 13.803706,-64.616206 L 13.741206,-70.959956 L 13.678706,-77.303706 z M 31.991206,-77.303706 L 31.928706,-70.959956 L 31.866206,-64.616206 L 37.272456,-67.741206 L 42.678706,-70.834956 L 37.334956,-74.084956 L 31.991206,-77.303706 z M 22.959956,-76.459956 C 19.930264,-76.459956 17.459957,-73.989647 17.459956,-70.959956 C 17.459956,-67.930264 19.930264,-65.459955 22.959956,-65.459956 C 25.989648,-65.459956 28.459957,-67.930263 28.459956,-70.959956 C 28.459956,-73.989648 25.989649,-76.459955 22.959956,-76.459956 z M 29.303706,-61.709956 L 22.959956,-61.647456 L 16.616206,-61.584956 L 19.834956,-56.241206 L 23.084956,-50.897456 L 26.178706,-56.303706 L 29.303706,-61.709956 z"
         style="fill:url(#radialGradient3786);fill-opacity:1;fill-rule:nonzero;stroke:#000000;stroke-width:1;stroke-miterlimit:4;stroke-opacity:1" />
      <path
         sodipodi:nodetypes="cccccccccccccccsssc"
         id="path3560"
         d="M 23.084956,-90.553706 L 19.834956,-85.209956 L 16.616206,-79.866206 L 22.959956,-79.803706 L 29.303706,-79.741206 L 26.178706,-85.147456 L 23.084956,-90.553706 z M 13.678706,-77.303706 L 8.3349562,-74.084956 L 2.9912062,-70.834956 L 8.3974562,-67.741206 L 13.803706,-64.616206 L 13.741206,-70.959956 L 13.678706,-77.303706 z M 22.959956,-76.459956 C 19.930264,-76.459956 17.459957,-73.989647 17.459956,-70.959956 C 17.459956,-67.930264 19.930264,-65.459955 22.959956,-65.459956 C 25.989648,-65.459956 28.459957,-67.930263 28.459956,-70.959956 C 28.459956,-73.989648 25.989649,-76.459955 22.959956,-76.459956 z"
         style="fill:url(#radialGradient3788);fill-opacity:1;fill-rule:nonzero;stroke:#000000;stroke-width:1;stroke-miterlimit:4;stroke-opacity:1" />
      <path
         id="path3566"
         d="M 23.084956,-42.553706 L 19.834956,-37.209956 L 16.616206,-31.866206 L 22.959956,-31.803706 L 29.303706,-31.741206 L 26.178706,-37.147456 L 23.084956,-42.553706 z M 13.678706,-29.303706 L 8.3349562,-26.084956 L 2.9912062,-22.834956 L 8.3974562,-19.741206 L 13.803706,-16.616206 L 13.741206,-22.959956 L 13.678706,-29.303706 z M 31.991206,-29.303706 L 31.928706,-22.959956 L 31.866206,-16.616206 L 37.272456,-19.741206 L 42.678706,-22.834956 L 37.334956,-26.084956 L 31.991206,-29.303706 z M 22.959956,-28.459956 C 19.930264,-28.459956 17.459957,-25.989647 17.459956,-22.959956 C 17.459956,-19.930264 19.930264,-17.459955 22.959956,-17.459956 C 25.989648,-17.459956 28.459957,-19.930263 28.459956,-22.959956 C 28.459956,-25.989648 25.989649,-28.459955 22.959956,-28.459956 z M 29.303706,-13.709956 L 22.959956,-13.647456 L 16.616206,-13.584956 L 19.834956,-8.241206 L 23.084956,-2.897456 L 26.178706,-8.303706 L 29.303706,-13.709956 z"
         style="fill:url(#radialGradient3790);fill-opacity:1;fill-rule:nonzero;stroke:#000000;stroke-width:1;stroke-miterlimit:4;stroke-opacity:1" />
      <path
         sodipodi:nodetypes="ccccccccsssc"
         id="path3568"
         d="M 13.678706,-29.303706 L 8.3349562,-26.084956 L 2.9912062,-22.834956 L 8.3974562,-19.741206 L 13.803706,-16.616206 L 13.741206,-22.959956 L 13.678706,-29.303706 z M 22.959956,-28.459956 C 19.930264,-28.459956 17.459957,-25.989647 17.459956,-22.959956 C 17.459956,-19.930264 19.930264,-17.459955 22.959956,-17.459956 C 25.989648,-17.459956 28.459957,-19.930263 28.459956,-22.959956 C 28.459956,-25.989648 25.989649,-28.459955 22.959956,-28.459956 z"
         style="fill:url(#radialGradient3792);fill-opacity:1;fill-rule:nonzero;stroke:#000000;stroke-width:1;stroke-miterlimit:4;stroke-opacity:1" />
      <path
         id="path3592"
         d="M 71.084956,5.4462938 L 67.834956,10.790044 L 64.616206,16.133794 L 70.959956,16.196294 L 77.303706,16.258794 L 74.178706,10.852544 L 71.084956,5.4462938 z M 61.678706,18.696294 L 56.334956,21.915044 L 50.991206,25.165044 L 56.397456,28.258794 L 61.803706,31.383794 L 61.741206,25.040044 L 61.678706,18.696294 z M 79.991206,18.696294 L 79.928706,25.040044 L 79.866206,31.383794 L 85.272456,28.258794 L 90.678706,25.165044 L 85.334956,21.915044 L 79.991206,18.696294 z M 70.959956,19.540044 C 67.930264,19.540044 65.459957,22.010353 65.459956,25.040044 C 65.459956,28.069736 67.930264,30.540045 70.959956,30.540044 C 73.989648,30.540044 76.459957,28.069737 76.459956,25.040044 C 76.459956,22.010352 73.989649,19.540045 70.959956,19.540044 z M 77.303706,34.290044 L 70.959956,34.352544 L 64.616206,34.415044 L 67.834956,39.758794 L 71.084956,45.102544 L 74.178706,39.696294 L 77.303706,34.290044 z"
         style="fill:url(#radialGradient3794);fill-opacity:1;fill-rule:nonzero;stroke:#000000;stroke-width:1;stroke-miterlimit:4;stroke-opacity:1" />
      <path
         sodipodi:nodetypes="csccccccccc"
         id="path3594"
         d="M 65.459956,25.040044 C 65.459956,28.069736 67.930264,30.540045 70.959956,30.540044 C 73.989648,30.540044 76.459957,28.069737 76.459956,25.040044 C 75.675162,17.789849 66.573454,18.166967 65.459956,25.040044 z M 77.303706,34.290044 L 70.959956,34.352544 L 64.616206,34.415044 L 67.834956,39.758794 L 71.084956,45.102544 L 74.178706,39.696294 L 77.303706,34.290044 z"
         style="fill:url(#radialGradient3796);fill-opacity:1;fill-rule:nonzero;stroke:#000000;stroke-width:1;stroke-miterlimit:4;stroke-opacity:1" />
      <path
         id="path3620"
         d="M 71.084956,-90.553706 L 67.834956,-85.209956 L 64.616206,-79.866206 L 70.959956,-79.803706 L 77.303706,-79.741206 L 74.178706,-85.147456 L 71.084956,-90.553706 z M 61.678706,-77.303706 L 56.334956,-74.084956 L 50.991206,-70.834956 L 56.397456,-67.741206 L 61.803706,-64.616206 L 61.741206,-70.959956 L 61.678706,-77.303706 z M 79.991206,-77.303706 L 79.928706,-70.959956 L 79.866206,-64.616206 L 85.272456,-67.741206 L 90.678706,-70.834956 L 85.334956,-74.084956 L 79.991206,-77.303706 z M 70.959956,-76.459956 C 67.930264,-76.459956 65.459957,-73.989647 65.459956,-70.959956 C 65.459956,-67.930264 67.930264,-65.459955 70.959956,-65.459956 C 73.989648,-65.459956 76.459957,-67.930263 76.459956,-70.959956 C 76.459956,-73.989648 73.989649,-76.459955 70.959956,-76.459956 z M 77.303706,-61.709956 L 70.959956,-61.647456 L 64.616206,-61.584956 L 67.834956,-56.241206 L 71.084956,-50.897456 L 74.178706,-56.303706 L 77.303706,-61.709956 z"
         style="fill:url(#radialGradient3798);fill-opacity:1;fill-rule:nonzero;stroke:#000000;stroke-width:1;stroke-miterlimit:4;stroke-opacity:1" />
      <path
         sodipodi:nodetypes="ccccccccsssc"
         id="path3622"
         d="M 71.084956,-90.553706 L 67.834956,-85.209956 L 64.616206,-79.866206 L 70.959956,-79.803706 L 77.303706,-79.741206 L 74.178706,-85.147456 L 71.084956,-90.553706 z M 70.959956,-76.459956 C 67.930264,-76.459956 65.459957,-73.989647 65.459956,-70.959956 C 65.459956,-67.930264 67.930264,-65.459955 70.959956,-65.459956 C 73.989648,-65.459956 76.459957,-67.930263 76.459956,-70.959956 C 76.459956,-73.989648 73.989649,-76.459955 70.959956,-76.459956 z"
         style="fill:url(#radialGradient3800);fill-opacity:1;fill-rule:nonzero;stroke:#000000;stroke-width:1;stroke-miterlimit:4;stroke-opacity:1" />
    </g>
  </g>
</svg>
